<?xml version="1.0" encoding="UTF-8" standalone="no"?>
<svg
   xmlns:dc="http://purl.org/dc/elements/1.1/"
   xmlns:cc="http://creativecommons.org/ns#"
   xmlns:rdf="http://www.w3.org/1999/02/22-rdf-syntax-ns#"
   xmlns:svg="http://www.w3.org/2000/svg"
   xmlns="http://www.w3.org/2000/svg"
   xmlns:sodipodi="http://sodipodi.sourceforge.net/DTD/sodipodi-0.dtd"
   xmlns:inkscape="http://www.inkscape.org/namespaces/inkscape"
   version="1.1"
   id="Layer_1"
   x="0px"
   y="0px"
   viewBox="0 0 1124.5557 1600.7075"
   xml:space="preserve"
   sodipodi:docname="Hot-Air-Balloon-Silhouette.svg"
   inkscape:version="1.0 (4035a4fb49, 2020-05-01)"
   width="56.227783"
   height="80.035378"><metadata
   id="metadata15"><rdf:RDF><cc:Work
       rdf:about=""><dc:format>image/svg+xml</dc:format><dc:type
         rdf:resource="http://purl.org/dc/dcmitype/StillImage" /><dc:title /></cc:Work></rdf:RDF></metadata><defs
   id="defs13" /><sodipodi:namedview
   inkscape:document-rotation="0"
   pagecolor="#ffffff"
   bordercolor="#666666"
   borderopacity="1"
   objecttolerance="10"
   gridtolerance="10"
   guidetolerance="10"
   inkscape:pageopacity="0"
   inkscape:pageshadow="2"
   inkscape:window-width="1920"
   inkscape:window-height="1017"
   id="namedview11"
   showgrid="false"
   inkscape:zoom="8"
   inkscape:cx="29.21977"
   inkscape:cy="73.463027"
   inkscape:window-x="-8"
   inkscape:window-y="760"
   inkscape:window-maximized="1"
   inkscape:current-layer="g8"
   scale-x="20"
   fit-margin-top="0"
   fit-margin-left="0"
   fit-margin-right="0"
   fit-margin-bottom="0" />
<g
   id="g8"
   transform="translate(-50.275819,-44.212299)">
	<path
   d="m 561.425,46.328 c 1.825,-4.594 87.108,-0.405 100.034,0.464 99.463,204.345 -4.042,982.31 -31.582,1208.129 16.17,0.321 32.315,-0.531 48.401,-2.134 83.856,-215.68 200.395,-542.976 188.992,-774.018 -1.565,-17.385 6.122,-261.244 -95.183,-412.804 53.471,13.733 105.314,34.112 153.505,61.063 44.929,60.43 111.985,217.772 73.302,469.084 -45.482,284.874 -129.344,380.794 -283.905,650.72 9.979,-2.303 19.848,-5.036 29.582,-8.216 -7.623,24.164 -41.434,122.767 -41.434,122.767 l -142.293,0.783 c 0,0 -47.38,-102.7 -51.134,-125.145 -10.063,-11.286 -20.548,-22.202 -30.73,-33.37 C 347.218,976.44 344.149,973.434 328.73,942.994 259.666,820.015 126.108,414.152 286.562,144.286 c 3.135,-5.115 27.67,-43.415 32.121,-45.137 44.369,-20.455 91.615,-34.18 139.603,-43.003 -26.301,37.72 -48.968,78.732 -69.194,147.878 -50.665,176.404 -35.36,399.827 -22.041,475.663 28.42,172.697 105.998,399.997 168.165,564.115 18.144,4.167 36.592,6.968 55.107,8.781 -20.45,-161.405 -62.482,-512.664 -70.147,-675.106 0,0 -2.1,-59.214 -2.1,-59.215 -0.888,-9.45 -12.663,-355.312 43.349,-471.934"
   id="path2"
   style="fill:#018100;fill-opacity:1"
   sodipodi:nodetypes="ccccccccccccccccccccccccc" />
	<path
   d="M 131.363,256.753 C 99.94,369.526 74.968,505.804 141.687,708.073 192.476,860.44 244.343,916.467 346.073,1060.278 340.907,1055.519 241.438,948.1 227.035,934.18 86.501,791.045 5.538,581.025 76.399,377.934 86.484,335.725 108.689,289.59 131.363,256.753 Z"
   id="path4"
   style="fill:#018100;fill-opacity:1" />
	<path
   d="m 1095.477,273.995 c 4.929,5.386 39.337,52.026 59.696,114.23 60.401,181.001 -27.229,352.155 -142.623,504.242 -14.296,18.908 -172.275,216.476 -172.374,216.583 129.45,-183.569 359.146,-450.167 255.301,-835.055 z"
   id="path6"
   style="fill:#018100;fill-opacity:1" />
<path
   style="fill:#964b00;fill-opacity:1"
   id="path2-2"
   d="m 703.137,1361.383 c -5.668,25.803 -11.61931,52.8486 -17.22831,78.6606 1.567,5.701 16.854,88.714 17.039,89.726 2.944,0.051 6.326,-0.321 8.697,1.847 2.547,2.024 3.146,6.149 0.869,8.621 -2.311,2.286 -5.778,1.535 -8.705,1.771 -0.766,110.085 11.012,102.084 -90.46,102.876 -65.333,1.081 -50.149,-22.509 -51.75,-103.163 -3.062,0.068 -6.647,1.223 -9.312,-0.793 -3.712,-2.657 -2.547,-9.591 2.067,-10.485 2.809,-0.337 5.643,-0.126 8.461,-0.152 -0.29066,-13.5238 17.69964,-91.5104 17.69964,-91.5104 0,0 -14.2847,-55.0318 -18.28595,-77.5186 m 4.75231,2.501 c 5.103,23.728 10.215,47.465 15.268,71.21 0.219,-22.438 0.051,-44.875 0.076,-67.313 -5.171,-1.072 -10.283,-2.396 -15.344,-3.897 m 115.554,4.555 c 0.193,26.871 -0.264,61.037 0.506,67.625 0.798,-6.593 15.239,-70.877 15.47,-71.894 -5.229,1.763 -10.653,2.843 -15.976,4.269 m -95.841,0.278 c 0.051,22.404 -0.278,44.825 0.169,67.22 4.192,-21.729 9.11,-43.315 13.775,-64.943 -4.699,-0.421 -9.322,-1.391 -13.944,-2.277 m 77.95,2.666 c 4.682,21.712 9.27,43.442 13.977,65.145 0.236,-22.446 0.034,-44.901 0.101,-67.339 -4.69,0.76 -9.371,1.527 -14.078,2.194 m -60.076,0.227 c -4.985,23.045 -9.92,46.107 -14.863,69.161 4.26,-0.017 8.528,-0.017 12.796,-0.01 0.261,-5.39 -0.768,-10.991 0.953,-16.204 3.442,-9.245 18.811,-9.49 22.682,-0.481 2.261,5.255 0.953,11.135 1.274,16.677 h 9.625 c 0.396,-5.39 -0.953,-11.067 0.894,-16.238 3.846,-9.279 19.342,-9.026 22.826,0.43 1.51,5.095 0.43,10.552 0.692,15.799 4.682,0.017 9.355,0.025 14.036,-0.01 -5.053,-22.952 -9.937,-45.938 -14.829,-68.924 -13.665,1.718 -34.62,2.228 -56.086,-0.204 m -16.314,79.663 c -5.036,26.377 -9.894,52.788 -15.099,79.14 57.888,-0.6 113.004,-0.47 119.426,-0.456 -5.221,-26.217 -10.181,-52.484 -15.42,-78.692 -5.137,0.01 -10.274,-0.01 -15.403,0.017 -3.27,14.844 -21.742,15.097 -25.086,0 -3.113,-0.017 -6.225,-0.017 -9.329,0 -3.617,15.964 -23.098,12.918 -24.766,0.16 -4.774,-0.279 -9.548,-0.152 -14.323,-0.169 z"
   sodipodi:nodetypes="ccccccccccccccccccccccccccccccccccccccccccccccccccc" /><ellipse
   ry="2.1947815"
   rx="2.4142597"
   cy="1531.9133"
   cx="595.7088"
   id="path2068"
   style="opacity:1;fill:#ffdbac;fill-opacity:1;fill-rule:evenodd;stroke-width:4.0063" /><ellipse
   style="opacity:1;fill:#ffdbac;fill-opacity:1;fill-rule:evenodd;stroke-width:4.0063"
   id="path2068-2"
   cx="599.25391"
   cy="1531.8755"
   rx="2.4142597"
   ry="2.1947815" /><ellipse
   style="opacity:1;fill:#ffdbac;fill-opacity:1;fill-rule:evenodd;stroke-width:4.0063"
   id="path2068-23"
   cx="602.38519"
   cy="1531.7123"
   rx="2.4142597"
   ry="2.1947815" /><ellipse
   style="opacity:1;fill:#ffdbac;fill-opacity:1;fill-rule:evenodd;stroke-width:4.0063"
   id="path2068-1"
   cx="605.74457"
   cy="1531.6342"
   rx="2.4142597"
   ry="2.1947815" /><ellipse
   style="opacity:1;fill:#ffdbac;fill-opacity:1;fill-rule:evenodd;stroke-width:4.0063"
   id="path2068-8"
   cx="665.57043"
   cy="1531.3051"
   rx="2.4142597"
   ry="2.1947815" /><ellipse
   ry="2.1947815"
   rx="2.4142597"
   cy="1531.2672"
   cx="669.11554"
   id="path2068-2-4"
   style="opacity:1;fill:#ffdbac;fill-opacity:1;fill-rule:evenodd;stroke-width:4.0063" /><ellipse
   ry="2.1947815"
   rx="2.4142597"
   cy="1531.104"
   cx="672.24683"
   id="path2068-23-6"
   style="opacity:1;fill:#ffdbac;fill-opacity:1;fill-rule:evenodd;stroke-width:4.0063" /><ellipse
   ry="2.1947815"
   rx="2.4142597"
   cy="1531.0259"
   cx="675.6062"
   id="path2068-1-5"
   style="opacity:1;fill:#ffdbac;fill-opacity:1;fill-rule:evenodd;stroke-width:4.0063" /><ellipse
   style="opacity:1;fill:#fe422c;fill-opacity:1;fill-rule:evenodd;stroke-width:4.0063"
   id="path1505-0"
   cx="634.96332"
   cy="1506.0873"
   rx="23.589561"
   ry="22.348005" /><ellipse
   style="opacity:1;fill:#ffdbac;fill-opacity:1;fill-rule:evenodd;stroke-width:4.0063"
   id="path1505"
   cx="635.58832"
   cy="1515.1498"
   rx="23.589561"
   ry="22.348005" /><ellipse
   ry="13.285505"
   rx="22.066124"
   cy="1496.7123"
   cx="634.76801"
   id="path1505-0-8"
   style="opacity:1;fill:#fe422c;fill-opacity:1;fill-rule:evenodd;stroke-width:2.98756" /></g>
</svg>
