<?xml version="1.0" encoding="UTF-8" standalone="no"?>
<svg
   xmlns:dc="http://purl.org/dc/elements/1.1/"
   xmlns:cc="http://creativecommons.org/ns#"
   xmlns:rdf="http://www.w3.org/1999/02/22-rdf-syntax-ns#"
   xmlns:svg="http://www.w3.org/2000/svg"
   xmlns="http://www.w3.org/2000/svg"
   xmlns:sodipodi="http://sodipodi.sourceforge.net/DTD/sodipodi-0.dtd"
   xmlns:inkscape="http://www.inkscape.org/namespaces/inkscape"
   id="Capa_1"
   x="0px"
   y="0px"
   viewBox="0 0 46.609321 33.209999"
   xml:space="preserve"
   version="1.1"
   sodipodi:docname="email.svg"
   width="47"
   height="33"
   inkscape:version="1.0 (4035a4fb49, 2020-05-01)"><metadata
   id="metadata925"><rdf:RDF><cc:Work
       rdf:about=""><dc:format>image/svg+xml</dc:format><dc:type
         rdf:resource="http://purl.org/dc/dcmitype/StillImage" /><dc:title /></cc:Work></rdf:RDF></metadata><defs
   id="defs923" /><sodipodi:namedview
   inkscape:document-rotation="0"
   pagecolor="#ffffff"
   bordercolor="#666666"
   borderopacity="1"
   objecttolerance="10"
   gridtolerance="10"
   guidetolerance="10"
   inkscape:pageopacity="0"
   inkscape:pageshadow="2"
   inkscape:window-width="1920"
   inkscape:window-height="1017"
   id="namedview921"
   showgrid="false"
   fit-margin-top="0"
   fit-margin-left="0"
   fit-margin-right="0"
   fit-margin-bottom="0"
   inkscape:zoom="14.382609"
   inkscape:cx="34.622547"
   inkscape:cy="19.16208"
   inkscape:window-x="-8"
   inkscape:window-y="-8"
   inkscape:window-maximized="1"
   inkscape:current-layer="g888" />
<g
   id="g888"
   transform="translate(-91.780113,-98.48)">
	<path
   d="m 138.35512,101.82125 c 0,-0.0533 0.0366,-0.1051 0.0342,-0.15775 l -14.2236,13.7052 14.20659,13.26739 c 0.008,-0.0948 -0.0173,-0.19035 -0.0173,-0.28714 z"
   id="path880"
   style="stroke-width:0.20158969;fill:#14487c;fill-opacity:1;stroke:none;stroke-miterlimit:4;stroke-dasharray:none" />
	<path
   d="m 121.99453,117.47774 -5.80649,5.58657 c -0.29382,0.28269 -0.6733,0.42444 -1.053,0.42444 -0.37179,0 -0.74358,-0.13567 -1.03537,-0.40763 l -5.79069,-5.39602 -14.299342,13.78296 c 0.347692,0.12494 0.7209,0.22194 1.111725,0.22194 h 40.027567 c 0.58036,0 1.12468,-0.17679 1.59793,-0.44043 z"
   id="path882"
   style="stroke-width:0.20158969;fill:#14487c;fill-opacity:1;stroke:none;stroke-miterlimit:4;stroke-dasharray:none" />
	<path
   d="M 115.11844,119.87858 136.82563,98.968227 C 136.33417,98.67602 135.7621,98.48 135.14893,98.48 H 95.121363 c -0.798458,0 -1.53009,0.310028 -2.099925,0.782865 z"
   id="path884"
   style="stroke-width:0.20158969;stroke-miterlimit:4;stroke-dasharray:none;fill:#14487c;fill-opacity:1;stroke:none" />
	<path
   d="m 91.780113,102.33054 v 26.01801 c 0,0.29869 0.06864,0.58664 0.143167,0.86183 l 14.12194,-13.59908 z"
   id="path886"
   style="stroke-width:0.20158969;fill:#14487c;fill-opacity:1;stroke:none;stroke-miterlimit:4;stroke-dasharray:none" />
</g>
<g
   id="g890"
   transform="translate(-91.780113,-98.48)">
</g>
<g
   id="g892"
   transform="translate(-91.780113,-98.48)">
</g>
<g
   id="g894"
   transform="translate(-91.780113,-98.48)">
</g>
<g
   id="g896"
   transform="translate(-91.780113,-98.48)">
</g>
<g
   id="g898"
   transform="translate(-91.780113,-98.48)">
</g>
<g
   id="g900"
   transform="translate(-91.780113,-98.48)">
</g>
<g
   id="g902"
   transform="translate(-91.780113,-98.48)">
</g>
<g
   id="g904"
   transform="translate(-91.780113,-98.48)">
</g>
<g
   id="g906"
   transform="translate(-91.780113,-98.48)">
</g>
<g
   id="g908"
   transform="translate(-91.780113,-98.48)">
</g>
<g
   id="g910"
   transform="translate(-91.780113,-98.48)">
</g>
<g
   id="g912"
   transform="translate(-91.780113,-98.48)">
</g>
<g
   id="g914"
   transform="translate(-91.780113,-98.48)">
</g>
<g
   id="g916"
   transform="translate(-91.780113,-98.48)">
</g>
<g
   id="g918"
   transform="translate(-91.780113,-98.48)">
</g>
</svg>
