<?xml version="1.0" encoding="UTF-8" standalone="no"?>
<svg
   xmlns:dc="http://purl.org/dc/elements/1.1/"
   xmlns:cc="http://creativecommons.org/ns#"
   xmlns:rdf="http://www.w3.org/1999/02/22-rdf-syntax-ns#"
   xmlns:svg="http://www.w3.org/2000/svg"
   xmlns="http://www.w3.org/2000/svg"
   xmlns:sodipodi="http://sodipodi.sourceforge.net/DTD/sodipodi-0.dtd"
   xmlns:inkscape="http://www.inkscape.org/namespaces/inkscape"
   inkscape:version="1.0 (4035a4fb49, 2020-05-01)"
   height="33"
   width="47"
   sodipodi:docname="email.svg"
   version="1.1"
   xml:space="preserve"
   viewBox="0 0 46.609321 33.209999"
   y="0px"
   x="0px"
   id="Capa_1"><metadata
   id="metadata925"><rdf:RDF><cc:Work
       rdf:about=""><dc:format>image/svg+xml</dc:format><dc:type
         rdf:resource="http://purl.org/dc/dcmitype/StillImage" /><dc:title></dc:title></cc:Work></rdf:RDF></metadata><defs
   id="defs923" /><sodipodi:namedview
   inkscape:current-layer="g888"
   inkscape:window-maximized="1"
   inkscape:window-y="-8"
   inkscape:window-x="-8"
   inkscape:cy="16.52"
   inkscape:cx="23.219887"
   inkscape:zoom="3.5956522"
   fit-margin-bottom="0"
   fit-margin-right="0"
   fit-margin-left="0"
   fit-margin-top="0"
   showgrid="false"
   id="namedview921"
   inkscape:window-height="1017"
   inkscape:window-width="1920"
   inkscape:pageshadow="2"
   inkscape:pageopacity="0"
   guidetolerance="10"
   gridtolerance="10"
   objecttolerance="10"
   borderopacity="1"
   bordercolor="#666666"
   pagecolor="#ffffff" />
<g
   transform="translate(-91.780113,-98.48)"
   id="g888">
	<path
   style="stroke-width:0.2025"
   id="path880"
   d="m 138.35512,101.82125 c 0,-0.0533 0.0366,-0.1051 0.0342,-0.15775 l -14.2236,13.7052 14.20659,13.26739 c 0.008,-0.0948 -0.0173,-0.19035 -0.0173,-0.28714 z" />
	<path
   style="stroke-width:0.2025"
   id="path882"
   d="m 121.99453,117.47774 -5.80649,5.58657 c -0.29382,0.28269 -0.6733,0.42444 -1.053,0.42444 -0.37179,0 -0.74358,-0.13567 -1.03537,-0.40763 l -5.79069,-5.39602 -14.299342,13.78296 c 0.347692,0.12494 0.7209,0.22194 1.111725,0.22194 h 40.027567 c 0.58036,0 1.12468,-0.17679 1.59793,-0.44043 z" />
	<path
   style="stroke-width:0.2025"
   id="path884"
   d="M 115.11844,119.87858 136.82563,98.968227 C 136.33417,98.67602 135.7621,98.48 135.14893,98.48 H 95.121363 c -0.798458,0 -1.53009,0.310028 -2.099925,0.782865 z" />
	<path
   style="stroke-width:0.2025"
   id="path886"
   d="m 91.780113,102.33054 v 26.01801 c 0,0.29869 0.06864,0.58664 0.143167,0.86183 l 14.12194,-13.59908 z" />
</g>
<g
   transform="translate(-91.780113,-98.48)"
   id="g890">
</g>
<g
   transform="translate(-91.780113,-98.48)"
   id="g892">
</g>
<g
   transform="translate(-91.780113,-98.48)"
   id="g894">
</g>
<g
   transform="translate(-91.780113,-98.48)"
   id="g896">
</g>
<g
   transform="translate(-91.780113,-98.48)"
   id="g898">
</g>
<g
   transform="translate(-91.780113,-98.48)"
   id="g900">
</g>
<g
   transform="translate(-91.780113,-98.48)"
   id="g902">
</g>
<g
   transform="translate(-91.780113,-98.48)"
   id="g904">
</g>
<g
   transform="translate(-91.780113,-98.48)"
   id="g906">
</g>
<g
   transform="translate(-91.780113,-98.48)"
   id="g908">
</g>
<g
   transform="translate(-91.780113,-98.48)"
   id="g910">
</g>
<g
   transform="translate(-91.780113,-98.48)"
   id="g912">
</g>
<g
   transform="translate(-91.780113,-98.48)"
   id="g914">
</g>
<g
   transform="translate(-91.780113,-98.48)"
   id="g916">
</g>
<g
   transform="translate(-91.780113,-98.48)"
   id="g918">
</g>
</svg>
