<?xml version="1.0" encoding="UTF-8" standalone="no"?>
<svg
   xmlns:dc="http://purl.org/dc/elements/1.1/"
   xmlns:cc="http://creativecommons.org/ns#"
   xmlns:rdf="http://www.w3.org/1999/02/22-rdf-syntax-ns#"
   xmlns:svg="http://www.w3.org/2000/svg"
   xmlns="http://www.w3.org/2000/svg"
   xmlns:sodipodi="http://sodipodi.sourceforge.net/DTD/sodipodi-0.dtd"
   xmlns:inkscape="http://www.inkscape.org/namespaces/inkscape"
   inkscape:version="1.0 (4035a4fb49, 2020-05-01)"
   sodipodi:docname="undraw_programming_2svr.svg"
   version="1.1"
   viewBox="0 0 1041.32 554.17"
   height="554.17"
   width="1041.32"
   data-name="Layer 1"
   id="59725d3d-bdd8-4af0-9b66-49b8d09410bc">
  <metadata
     id="metadata1770">
    <rdf:RDF>
      <cc:Work
         rdf:about="">
        <dc:format>image/svg+xml</dc:format>
        <dc:type
           rdf:resource="http://purl.org/dc/dcmitype/StillImage" />
      </cc:Work>
    </rdf:RDF>
  </metadata>
  <sodipodi:namedview
     inkscape:current-layer="59725d3d-bdd8-4af0-9b66-49b8d09410bc"
     inkscape:window-maximized="1"
     inkscape:window-y="-8"
     inkscape:window-x="-8"
     inkscape:cy="277.08499"
     inkscape:cx="520.65997"
     inkscape:zoom="1.0073753"
     showgrid="false"
     id="namedview1768"
     inkscape:window-height="1017"
     inkscape:window-width="1920"
     inkscape:pageshadow="2"
     inkscape:pageopacity="0"
     guidetolerance="10"
     gridtolerance="10"
     objecttolerance="10"
     borderopacity="1"
     bordercolor="#666666"
     pagecolor="#ffffff" />
  <defs
     id="defs1611">
    <linearGradient
       gradientUnits="userSpaceOnUse"
       y2="347.69"
       x2="597.75"
       y1="725.44"
       x1="597.75"
       id="dff037aa-d578-4bab-81e7-399360663117">
      <stop
         id="stop1604"
         stop-opacity="0.25"
         stop-color="gray"
         offset="0" />
      <stop
         id="stop1606"
         stop-opacity="0.12"
         stop-color="gray"
         offset="0.54" />
      <stop
         id="stop1608"
         stop-opacity="0.1"
         stop-color="gray"
         offset="1" />
    </linearGradient>
  </defs>
  <title
     id="title1613">programming</title>
  <rect
     id="rect1631"
     fill="#3f3d56"
     height="57.66"
     width="19"
     y="265.83"
     x="211.6" />
  <rect
     id="rect1633"
     fill="#3f3d56"
     height="61"
     width="19"
     y="262.83"
     x="722.93" />
  <polygon
     id="polygon1635"
     fill="#65617d"
     points="863.1 533.65 863.1 546.65 711.18 548.05 709.56 548.08 651.82 548.61 650.44 548.63 632.89 548.78 632.37 548.78 525.39 549.77 349.78 551.4 349.63 551.4 304.98 551.82 304.5 551.83 106.1 553.65 106.1 538.65 152.75 510.65 246.35 509.87 248.35 509.86 249.01 509.85 251.01 509.82 295.95 509.45 297.96 509.44 298.6 509.43 300.6 509.42 315.01 509.3 315.39 509.29 350.94 508.99 351.23 508.99 628.63 506.65 635.42 506.6 636.1 506.6 641.28 506.55 678.93 506.24 680.93 506.21 682.78 506.19 683.74 506.19 695.45 506.1 697.77 506.07 700.88 506.05 710.63 505.96 726.1 505.83 728.1 505.81 731.58 505.79 732.23 505.79 806.94 505.15 863.1 533.65" />
  <polygon
     id="polygon1637"
     opacity="0.2"
     points="863.1 533.65 863.1 546.65 711.18 548.05 709.56 548.08 651.82 548.61 650.44 548.63 632.89 548.78 632.37 548.78 525.39 549.77 349.78 551.4 349.63 551.4 304.98 551.82 304.5 551.83 106.1 553.65 106.1 538.65 152.75 510.65 246.35 509.87 248.35 509.86 249.01 509.85 251.01 509.82 295.95 509.45 297.96 509.44 298.6 509.43 300.6 509.42 315.01 509.3 315.39 509.29 350.94 508.99 351.23 508.99 628.63 506.65 635.42 506.6 636.1 506.6 641.28 506.55 678.93 506.24 680.93 506.21 682.78 506.19 683.74 506.19 695.45 506.1 697.77 506.07 700.88 506.05 710.63 505.96 726.1 505.83 728.1 505.81 731.58 505.79 732.23 505.79 806.94 505.15 863.1 533.65" />
  <path
     id="path1639"
     fill="#3f3d56"
     transform="translate(-79.34 -172.91)"
     d="M375.44,656.57v24.49a6.13,6.13,0,0,1-3.5,5.54,6,6,0,0,1-2.5.6l-34.9.74a6,6,0,0,1-2.7-.57,6.12,6.12,0,0,1-3.57-5.57V656.57Z" />
  <path
     id="path1641"
     opacity="0.1"
     transform="translate(-79.34 -172.91)"
     d="M375.44,656.57v24.49a6.13,6.13,0,0,1-3.5,5.54,6,6,0,0,1-2.5.6l-34.9.74a6,6,0,0,1-2.7-.57,6.12,6.12,0,0,1-3.57-5.57V656.57Z" />
  <path
     id="path1643"
     fill="#3f3d56"
     transform="translate(-79.34 -172.91)"
     d="M377.44,656.57v24.49a6.13,6.13,0,0,1-3.5,5.54,6,6,0,0,1-2.5.6l-34.9.74a6,6,0,0,1-2.7-.57,6.12,6.12,0,0,1-3.57-5.57V656.57Z" />
  <rect
     id="rect1645"
     fill="#3f3d56"
     height="31.5"
     width="47.17"
     y="483.66"
     x="680.93" />
  <rect
     id="rect1647"
     opacity="0.1"
     height="31.5"
     width="47.17"
     y="483.66"
     x="680.93" />
  <rect
     id="rect1649"
     fill="#3f3d56"
     height="31.5"
     width="47.17"
     y="483.66"
     x="678.93" />
  <polygon
     id="polygon1651"
     opacity="0.1"
     points="230.6 265.82 230.6 271.55 211.6 271.06 211.6 265.82 230.6 265.82" />
  <path
     id="path1653"
     fill="#65617d"
     transform="translate(-79.34 -172.91)"
     d="M435,277.31l-22.83,164a4.3,4.3,0,0,1-4.37,3.71L225,440.28l-3.47-.09a4.3,4.3,0,0,1-4.16-4.87L243,263.64a4.3,4.3,0,0,1,4.54-3.63L431,272.43A4.29,4.29,0,0,1,435,277.31Z" />
  <polygon
     style="fill:#c23a40;fill-opacity:1"
     id="polygon1655"
     fill="#6c63ff"
     points="175.93 99.16 156.6 250.49 324.6 255.82 345.26 109.82 175.93 99.16" />
  <rect
     id="rect1657"
     fill="#65617d"
     ry="5.33"
     rx="5.33"
     height="173.33"
     width="204.67"
     y="96.82"
     x="384.6" />
  <rect
     style="fill:#c23a40;fill-opacity:1"
     id="rect1659"
     fill="#6c63ff"
     height="144.33"
     width="186"
     y="108.49"
     x="394.26" />
  <polygon
     id="polygon1661"
     opacity="0.1"
     points="741.93 262.82 741.93 266.61 722.93 267 722.93 262.82 741.93 262.82" />
  <path
     id="path1663"
     fill="#65617d"
     transform="translate(-79.34 -172.91)"
     d="M907,432.53a3.08,3.08,0,0,1-3,3.28L716.8,439.68a3.08,3.08,0,0,1-3.13-2.79L697.58,269.61a3.08,3.08,0,0,1,2.92-3.37L886.28,257l2-.1a3.07,3.07,0,0,1,3.22,2.8Z" />
  <polygon
     style="fill:#c23a40;fill-opacity:1"
     id="polygon1665"
     fill="#6c63ff"
     points="628.93 103.16 798.6 94.82 812.93 246.82 644.6 250.82 628.93 103.16" />
  <path
     id="path1667"
     opacity="0.1"
     transform="translate(-79.34 -172.91)"
     d="M907,432.53a3.08,3.08,0,0,1-3,3.28L886.28,257l2-.1a3.07,3.07,0,0,1,3.22,2.8Z" />
  <path
     id="path1669"
     opacity="0.1"
     transform="translate(-79.34 -172.91)"
     d="M247.57,260,225,440.28l-3.47-.09a4.3,4.3,0,0,1-4.16-4.87L243,263.64A4.3,4.3,0,0,1,247.57,260Z" />
  <rect
     id="rect1671"
     opacity="0.1"
     height="17.08"
     width="19"
     y="306.41"
     x="211.6" />
  <polygon
     id="polygon1673"
     opacity="0.1"
     points="298.1 483.65 298.1 488.62 250.93 489.88 250.93 483.65 298.1 483.65" />
  <path
     id="path1675"
     fill="#65617d"
     transform="translate(-79.34 -172.91)"
     d="M460.69,485.27v168.2a4,4,0,0,1-3.85,3.95l-191.65,5.1h-.05a4,4,0,0,1-3.95-3.95V485.27a4,4,0,0,1,3.95-3.95h191.6A4,4,0,0,1,460.69,485.27Z" />
  <path
     id="path1677"
     opacity="0.1"
     transform="translate(-79.34 -172.91)"
     d="M265.19,481.32v181.2h-.05a4,4,0,0,1-3.95-3.95V485.27a4,4,0,0,1,3.95-3.95Z" />
  <polygon
     style="fill:#000000;fill-opacity:1"
     id="polygon1679"
     fill="#d4dfec"
     points="194.6 319.15 372.1 319.15 372.1 467.4 194.6 471.4 194.6 319.15" />
  <rect
     id="rect1681"
     opacity="0.1"
     height="17.42"
     width="19"
     y="306.41"
     x="722.93" />
  <polygon
     id="polygon1683"
     opacity="0.1"
     points="726.1 483.65 726.1 490.06 678.93 488.8 678.93 483.65 726.1 483.65" />
  <path
     id="path1685"
     fill="#65617d"
     transform="translate(-79.34 -172.91)"
     d="M867.69,485.27v173.3a4,4,0,0,1-4,3.95h0L672,657.42a4,4,0,0,1-3.85-3.95V485.27a4,4,0,0,1,3.95-3.95h191.6A4,4,0,0,1,867.69,485.27Z" />
  <path
     id="path1687"
     opacity="0.1"
     transform="translate(-79.34 -172.91)"
     d="M867.69,485.27v173.3a4,4,0,0,1-4,3.95h0V481.32h0A4,4,0,0,1,867.69,485.27Z" />
  <polygon
     id="polygon1689"
     fill="#d4dfec"
     points="775.6 319.15 598.1 319.15 598.1 467.4 775.6 471.4 775.6 319.15" />
  <path
     id="path1691"
     fill="#65617d"
     transform="translate(-79.34 -172.91)"
     d="M663.19,485.27v168.2a4,4,0,0,1-3.85,3.95l-191.65,5.1h0a4,4,0,0,1-4-3.95V485.27a4,4,0,0,1,3.95-3.95h191.6A4,4,0,0,1,663.19,485.27Z" />
  <polygon
     id="polygon1693"
     fill="#d4dfec"
     points="397.1 319.15 574.6 319.15 574.6 467.4 397.1 471.4 397.1 319.15" />
  <polygon
     id="polygon1695"
     opacity="0.1"
     points="863.1 533.65 863.1 546.65 711.18 548.05 709.56 548.08 651.82 548.61 650.44 548.63 632.89 548.78 632.37 548.78 525.39 549.77 349.78 551.4 349.63 551.4 304.98 551.82 304.5 551.83 106.1 553.65 106.1 538.65 308.61 537.32 309.09 537.32 350.08 537.04 350.27 537.04 633.35 535.17 633.64 535.17 633.81 535.16 634.28 535.16 639.07 535.13 640.53 535.13 715.02 534.63 719.42 534.61 720.4 534.6 863.1 533.65" />
  <circle
     id="circle1697"
     fill="#fbbebe"
     r="51.33"
     cy="272.16"
     cx="487.26" />
  <path
     id="path1701"
     fill="#fbbebe"
     transform="translate(-79.34 -172.91)"
     d="M617.94,550.07s-99.5,12-90,0c3.44-4.34,4.39-17.2,4.2-31.85-.06-4.45-.22-9.06-.45-13.65-1.1-22-3.75-43.5-3.75-43.5s87-41,77-8.5c-4,13.13-2.69,31.57.35,48.88.89,5.05,1.92,10,3,14.7A344.67,344.67,0,0,0,617.94,550.07Z" />
  <path
     id="path1703"
     opacity="0.1"
     transform="translate(-79.34 -172.91)"
     d="M617.94,550.07s-99.5,12-90,0c3.44-4.34,4.39-17.2,4.2-31.85,15.17-6.48,34.47-1.65,34.47-1.65,20.32-4.05,33.35-3.26,41.68-.42A344.67,344.67,0,0,0,617.94,550.07Z" />
  <path
     sodipodi:nodetypes="cccccccccccccccccscccccccsscccccccccccccccccscccccccccccccccccccscccccccccccscccccccccccccccccccccssccccccccccccc"
     transform="translate(-79.34,-172.91)"
     style="fill:#c23a40;fill-opacity:1"
     id="path1705"
     fill="#6c63ff"
     d="m 429.08,725.44 v -0.84 l 175.62,-1.91 107,-1 h 0.3 l -0.11,1.48 0.15,-1.48 h 0.19 v -0.17 l 1.37,-13.45 0.52,-5.09 0.16,-1.59 0.14,-1.33 6.18,-20.61 6.18,-20.58 5.2,-17.33 7.94,-26.48 c 0,0 -4.5,-10.5 -7,-13.5 -2.5,-3 -5,-23.5 -5,-23.5 0,0 -21.34,-20.33 -30.67,-22.67 -3.91,-1 -11.63,-2.33 -19.83,-4 -3.07,-0.62 -6.22,-1.28 -9.25,-2 -1.71,-0.39 -3.39,-0.8 -5,-1.21 -3.13353,-0.78269 -6.22155,-1.73747 -9.25,-2.86 -1.58783,-0.57685 -3.09907,-1.3459 -4.5,-2.29 -7.35,-5.39 -25.77,-6 -26.48,-6 v 0 c -0.002,-0.0233 -0.002,-0.0467 0,-0.07 v -0.09 c 0.0258,-0.4196 0.0258,-0.8404 0,-1.26 0,-0.4 0,-0.87 -0.09,-1.4 0,-0.16 0,-0.33 -0.07,-0.5 -0.05,-0.36 -0.11,-0.74 -0.2,-1.14 -0.0304,-0.17871 -0.0704,-0.35564 -0.12,-0.53 -0.28979,-1.20495 -0.70889,-2.37507 -1.25,-3.49 -0.07,-0.16 -0.16,-0.33 -0.24,-0.49 -0.49027,-0.92376 -1.05903,-1.80366 -1.7,-2.63 -0.13,-0.17 -0.27,-0.35 -0.42,-0.52 -0.81915,-0.9659 -1.73009,-1.85004 -2.72,-2.64 -0.27,-0.21 -0.55,-0.43 -0.84,-0.63 -0.16178,-0.13124 -0.33216,-0.25151 -0.51,-0.36 l -0.89,-0.58 -0.83,-0.48 c -0.73,-0.4 -1.5,-0.79 -2.34,-1.16 -0.26,-0.12 -0.54,-0.23 -0.82,-0.34 -0.28,-0.11 -0.72,-0.28 -1.09,-0.42 h -0.06 L 608,518 c -0.57,-0.19 -1.15,-0.36 -1.76,-0.53 l -0.93,-0.24 -1,-0.23 -1,-0.21 c -1,-0.2 -2.07,-0.38 -3.19,-0.52 l -1.14,-0.14 -1.17,-0.12 -1.21,-0.1 -1.72,-0.1 -2,-0.07 c -8.82073,-8.2e-4 -17.61665,0.93442 -26.24,2.79 -5.99064,-1.33305 -12.12669,-1.89759 -18.26,-1.68 h -0.87 l -1,0.06 h -0.64 l -1.29,0.12 c -0.43,0 -0.87,0.09 -1.3,0.15 -0.43,0.06 -0.88,0.11 -1.31,0.18 l -0.66,0.11 c -0.65,0.11 -1.31,0.23 -2,0.37 -0.22,0.04 -0.44,0.09 -0.66,0.15 -0.87,0.19 -1.74,0.42 -2.6,0.68 -0.43,0.12 -0.86,0.26 -1.29,0.41 -0.22,0.06 -0.43,0.14 -0.64,0.22 l -0.64,0.23 -0.63,0.25 -0.75,0.3 c -0.38,0.16 -0.75,0.33 -1.12,0.51 -0.21,0.09 -0.42,0.19 -0.62,0.3 -0.2,0.11 -0.41,0.2 -0.6,0.31 -2.26106,1.16832 -4.35065,2.64214 -6.21,4.38 l -0.51,0.49 -0.5,0.51 c -0.17,0.17 -0.33,0.35 -0.49,0.53 -0.65171,0.71242 -1.2595,1.46381 -1.82,2.25 -0.16,0.21 -0.31,0.42 -0.46,0.64 -0.63461,0.93591 -1.2091,1.91121 -1.72,2.92 -0.13,0.24 -0.25,0.49 -0.37,0.73 -0.81604,1.68938 -1.48518,3.44587 -2,5.25 -0.18667,0.66667 -0.35667,1.33333 -0.51,2 0,0 -21.17,9.34 -38.73,16.1 -4.67,1.8 -9.07,3.43 -12.75,4.66 -1.07,0.36 -2.07,0.69 -3,1 -2.0179,0.72939 -4.11637,1.21288 -6.25,1.44 -1.00569,0.0165 -2.00863,0.1101 -3,0.28 -8.07,1.31 -21.9,7 -23.41,12.71 -0.1226,0.45597 -0.15654,0.93123 -0.1,1.4 v 0.11 c 1,7 -6,6 -6,6 0,0 -2.5,18.5 -6,23.5 -2.53,3.6 -4.26,11.63 -4.48,17.69 v 0 c -0.12573,1.88807 0.0225,3.78439 0.44,5.63 v 0.14 c 0.4,1.34 -0.56,5 -2.19,9.69 -1.77,5.15 5.57679,14.52804 3.09679,20.56804 -3.74,9.12 -3.28929,18.39267 -3.50929,20.21267 -0.09,0.81 13.5475,6.23072 13.1875,8.10072 -1.46,7.62 14.1609,3.26911 12.5609,9.13911 -1.19,4.38 17.92625,-5.50286 16.73625,-1.38286 0,0.12 9.85679,-5.71608 9.82679,-5.60608 L 429,724.6 v 0.84 h 0.14 z" />
  <path
     id="path1707"
     opacity="0.1"
     transform="translate(-79.34 -172.91)"
     d="M445.44,607.57s57,29.5,77.5,26Z" />
  <path
     id="path1709"
     opacity="0.1"
     transform="translate(-79.34 -172.91)"
     d="M561.44,595.57s55.5,18,74,20.5S561.44,595.57,561.44,595.57Z" />
  <path
     id="path1711"
     opacity="0.1"
     transform="translate(-79.34 -172.91)"
     d="M623,537.65c-29,5.34-83.6,4.19-107.2,3.38,8.65-31,50.83-20.46,50.83-20.46C618.84,510.15,622.84,531.77,623,537.65Z" />
  <path
     style="fill:#c23a40;fill-opacity:1"
     id="path1713"
     fill="#6c63ff"
     transform="translate(-79.34 -172.91)"
     d="M623,535.65c-29,5.34-83.6,4.19-107.2,3.38,8.65-31,50.83-20.46,50.83-20.46C618.84,508.15,622.84,529.77,623,535.65Z" />
  <path
     transform="translate(-79.34 -172.91)"
     id="path1715"
     fill="#fbbebe"
     d="M776.94,672.32s34.16-5.25,34.83,9.75-17.42,25.48-17.42,25.48Z" />
  <path
     id="path1717"
     opacity="0.1"
     transform="translate(-79.34 -172.91)"
     d="M605.29,501.45a47,47,0,0,1-4.5,1.74c-10.78,3.72-21.65,7.47-33,8.83s-23.26.16-33.16-5.5a28.77,28.77,0,0,1-3-1.95c-1.1-22-3.75-43.5-3.75-43.5s87-41,77-8.5C600.9,465.7,602.25,484.14,605.29,501.45Z" />
  <path
     id="path1719"
     fill="#3f3d56"
     transform="translate(-79.34 -172.91)"
     d="M552.52,364.84a9.47,9.47,0,0,1-8.32-1.75l2.08,2.89a8.47,8.47,0,0,1-6.78-2.25,34.08,34.08,0,0,0,.32,7.75,14.52,14.52,0,0,1-9.56-3,4.42,4.42,0,0,0,2.64,4.31,14.34,14.34,0,0,0-15.6,10.71l5.22.48a18.47,18.47,0,0,0-10.44,6.37c-1.6,2-2.82,4.56-2.12,7s4.08,4,5.92,2.26a27.94,27.94,0,0,0-6.1,22.79,14.47,14.47,0,0,1,.46,5.26c-.33,1.65-1.37,3.08-1.89,4.69-1,2.92-.05,6.09.84,9l4.69,15.42c1.7,5.57,3.39,11.15,5.61,16.54a82.08,82.08,0,0,1,4,10.51c1.26,4.84,1.31,10.14,4,14.37a19.93,19.93,0,0,0,7.18,6.33c9.89,5.66,21.84,6.86,33.16,5.5s22.18-5.11,32.95-8.83a31,31,0,0,0,6.84-3c7.45-4.88,9.11-14.86,10.5-23.65,1.55-9.8,3.62-19.58,7.29-28.8,2.18-5.49,5-11.06,4.52-16.94-.61-7.81-6.79-14.14-8.32-21.82a19,19,0,0,1,.07-7.77,17.66,17.66,0,0,0,.79-4.7c-.17-3.22-2.81-5.7-5.29-7.77Q609.11,380,600.52,374c-.29-2,2.43-2.86,3.66-4.44,1.74-2.23-.06-5.77-2.7-6.81s-5.6-.36-8.35.33a6.59,6.59,0,0,0-11.55-5.11,10.2,10.2,0,0,0-8.42-6.08c-6.63-.52-6.76,4.55-11,7.34s-7.74-.89-11-3.57A9.28,9.28,0,0,0,552.52,364.84Z" />
  <path
     transform="translate(-79.34 -172.91)"
     style="fill:#c23a40;fill-opacity:1"
     id="path1721"
     fill="#6c63ff"
     d="M802.27,702.32s-.89,2.12-2.53,5.19a69,69,0,0,1-9,13.17l-.27.29-1.62,0-57.74.53-1.38,0-.17-.2-11.2-13.29L714.14,703l-.17-.21-.36-.42-.2-.24-.26-.31-8.21-9.74,3-12.5,5.11-21.06.13-.51,1-4,.71-3,2.38-9.78,8.16-33.65,14.5,7.5,15.29,27,8.21,14.5h4.5c.85,0,2.8,1.64,4.76,3.53.7.67,1.4,1.38,2,2,1.78,1.84,3.19,3.42,3.19,3.42s7.29.16,9.25,5.9a7,7,0,0,1,.25.85,40.3,40.3,0,0,0,2.53,6.56c1.29,2.81,2.91,6,4.55,9.19,3.05,5.85,6.15,11.42,7.29,13.44l.14.25Z" />
  <path
     id="path1723"
     opacity="0.1"
     transform="translate(-79.34 -172.91)"
     d="M716.37,657.17l-.1,1.43v.1l-.17,2.3-1.33,18.51-1.61,22.3-.46,6.28-1,13.44v.17l-107,1L429.11,724.6l0,.84h-.14l0-.84v-.28l.45-14.36.86-28.06.74-23.79.07-2.37a10.53,10.53,0,0,1,11.42-10.17c4.72.4,10.85.89,18.18,1.41l3,.22c42.33,2.94,120.56,6.74,199.5,2,1.66-.09,3.33-.19,5-.31,12.24-.77,24.47-1.76,36.58-3a10.53,10.53,0,0,1,11.6,11.23Z" />
  <path
     id="path1725"
     fill="#3f3d56"
     transform="translate(-79.34 -172.91)"
     d="M429.08,725.44l0-.84,175.62-1.91,107-1H712v-.17l1-13.44.43-6,1.64-22.61,1.29-17.9,0-.44a10.62,10.62,0,0,0-.11-2.47.3.3,0,0,0,0-.1,10.39,10.39,0,0,0-2-4.64,10.54,10.54,0,0,0-9.42-4c-12.11,1.24-24.34,2.23-36.58,3-1.67.12-3.34.22-5,.31-78.94,4.69-157.17.89-199.5-2l-3-.22c-7.33-.52-13.46-1-18.18-1.41a10.54,10.54,0,0,0-11.24,8.53,11,11,0,0,0-.18,1.64l-.68,22.16L429.54,710l-.44,14.36v.28l0,.84Z" />
  <path
     id="path1727"
     opacity="0.1"
     transform="translate(-79.34 -172.91)"
     d="M716.67,664.18l-1.23,15.33-1.83,22.85-.46,5.72-1,12.81-.06.64v.17h0l-.15,1.48.11-1.48h-.29l-107,1L429.11,724.6v-.28l.49-14.36,1-28.06.64-18.65A6.36,6.36,0,0,1,434.3,658a6.25,6.25,0,0,1,3.78-.9c2.1.17,4.68.37,7.69.59,4.89.36,10.92.78,17.94,1.22,13,.82,29.31,1.7,48,2.42,52,2,122.2,2.67,188.88-3.17,3-.26,6.1-.55,9.13-.84a6.26,6.26,0,0,1,3.48.66,5.16,5.16,0,0,1,.86.54,6.14,6.14,0,0,1,2,2.46,3.56,3.56,0,0,1,.25.61A6.28,6.28,0,0,1,716.67,664.18Z" />
  <path
     id="path1729"
     opacity="0.1"
     transform="translate(-79.34 -172.91)"
     d="M377.44,677.87v3.19a6.13,6.13,0,0,1-3.5,5.54l-40.1.77a6.12,6.12,0,0,1-3.57-5.57v-3Z" />
  <polygon
     id="polygon1731"
     fill="#3f3d56"
     points="298.6 515.57 246.35 516.57 246.35 507.9 298.6 506.9 298.6 515.57" />
  <polygon
     id="polygon1733"
     opacity="0.1"
     points="298.6 515.57 246.35 516.57 246.35 507.9 298.6 506.9 298.6 515.57" />
  <polygon
     id="polygon1735"
     fill="#3f3d56"
     points="300.6 515.57 248.35 516.57 248.35 507.9 300.6 506.9 300.6 515.57" />
  <g
     id="g1755"
     opacity="0.1">
    <path
       id="path1737"
       transform="translate(-79.34 -172.91)"
       d="M552.93,361.56a9.75,9.75,0,0,1-1.89-4.34,9.49,9.49,0,0,0,.42,4.6A9,9,0,0,0,552.93,361.56Z" />
    <path
       id="path1739"
       transform="translate(-79.34 -172.91)"
       d="M540.23,368.2a35.12,35.12,0,0,1-.37-3.7c0,1.23,0,2.47,0,3.71Z" />
    <path
       id="path1741"
       transform="translate(-79.34 -172.91)"
       d="M621.73,401.57a18.34,18.34,0,0,1,.36-2.65,18,18,0,0,0,.8-4.69,6.16,6.16,0,0,0-.16-1.06c-.17.92-.44,1.84-.64,2.75A19.14,19.14,0,0,0,621.73,401.57Z" />
    <path
       id="path1743"
       transform="translate(-79.34 -172.91)"
       d="M600.93,370.67l1.09.79a19.71,19.71,0,0,0,2.57-2.22,3.67,3.67,0,0,0,.38-3.64,3,3,0,0,1-.38.64C603.36,367.82,600.64,368.69,600.93,370.67Z" />
    <path
       id="path1745"
       transform="translate(-79.34 -172.91)"
       d="M518.76,380.29a12.32,12.32,0,0,0-.87,2.28,18.16,18.16,0,0,1,5-1.89Z" />
    <path
       id="path1747"
       transform="translate(-79.34 -172.91)"
       d="M532.55,369.41a14.83,14.83,0,0,1-1.88-1.23,4.25,4.25,0,0,0,.09,1.18A11.86,11.86,0,0,1,532.55,369.41Z" />
    <path
       id="path1749"
       transform="translate(-79.34 -172.91)"
       d="M630.32,428.33c-.41,4.85-2.67,9.52-4.5,14.12-3.67,9.22-5.74,19-7.29,28.81-1.39,8.79-3,18.77-10.5,23.64a30,30,0,0,1-6.83,3c-10.78,3.73-21.65,7.47-33,8.83s-23.26.17-33.16-5.49a20,20,0,0,1-7.18-6.33c-2.67-4.23-2.72-9.53-4-14.37a82.21,82.21,0,0,0-4-10.52c-2.21-5.38-3.91-11-5.6-16.53q-2.35-7.71-4.69-15.43a28.81,28.81,0,0,1-1.14-4.75c-.39,2.56.37,5.24,1.14,7.75q2.34,7.73,4.69,15.43c1.69,5.57,3.39,11.15,5.6,16.53a82.21,82.21,0,0,1,4,10.52c1.26,4.84,1.31,10.14,4,14.37a20,20,0,0,0,7.18,6.33c9.9,5.66,21.84,6.85,33.16,5.49s22.18-5.1,33-8.83a30,30,0,0,0,6.83-3c7.45-4.87,9.11-14.85,10.5-23.64,1.55-9.81,3.62-19.59,7.29-28.81,2.18-5.48,5-11.05,4.52-16.94C630.34,428.45,630.32,428.39,630.32,428.33Z" />
    <path
       id="path1751"
       transform="translate(-79.34 -172.91)"
       d="M510.63,424.46s0-.07,0-.11a14,14,0,0,0-.46-5.25,26.59,26.59,0,0,1-.39-3.32,27.35,27.35,0,0,0,.39,6.32C510.33,422.88,510.51,423.67,510.63,424.46Z" />
    <path
       id="path1753"
       transform="translate(-79.34 -172.91)"
       d="M513.68,400a27.74,27.74,0,0,1,2.61-3.67c-1.83,1.75-5.21.19-5.92-2.24a5.83,5.83,0,0,0,0,3A4.39,4.39,0,0,0,513.68,400Z" />
  </g>
  <path
     transform="translate(-79.34 -172.91)"
     id="path1757"
     opacity="0.1"
     d="M763.44,656.57s3.17,11.5,0,21.5S763.44,656.57,763.44,656.57Z" />
  <path
     transform="translate(-79.34 -172.91)"
     id="path1759"
     opacity="0.1"
     d="M776.94,668.3s1.33,14.6-1.67,17.19S776.94,668.3,776.94,668.3Z" />
  <line
     style="stroke:#c2e140;stroke-opacity:1"
     id="line1761"
     stroke-width="2"
     stroke-miterlimit="10"
     stroke="#6c63ff"
     fill="none"
     y2="341.86"
     x2="300.6"
     y1="342.86"
     x1="198.99" />
  <line
     style="stroke:#2977eb;stroke-opacity:1"
     id="line1763"
     stroke-width="2"
     stroke-miterlimit="10"
     stroke="#6c63ff"
     fill="none"
     y2="354.34"
     x2="300.6"
     y1="355.33"
     x1="198.99" />
  <line
     style="stroke:#143a40;stroke-opacity:1"
     id="line1765"
     stroke-width="2"
     stroke-miterlimit="10"
     stroke="#6c63ff"
     fill="none"
     y2="366.81"
     x2="300.6"
     y1="367.81"
     x1="198.99" />
</svg>
