<?xml version="1.0" encoding="UTF-8" standalone="no"?>
<svg
   xmlns:dc="http://purl.org/dc/elements/1.1/"
   xmlns:cc="http://creativecommons.org/ns#"
   xmlns:rdf="http://www.w3.org/1999/02/22-rdf-syntax-ns#"
   xmlns:svg="http://www.w3.org/2000/svg"
   xmlns="http://www.w3.org/2000/svg"
   xmlns:xlink="http://www.w3.org/1999/xlink"
   xmlns:sodipodi="http://sodipodi.sourceforge.net/DTD/sodipodi-0.dtd"
   xmlns:inkscape="http://www.inkscape.org/namespaces/inkscape"
   inkscape:version="1.0 (4035a4fb49, 2020-05-01)"
   sodipodi:docname="undraw_walk_in_the_city_1ma6.svg"
   version="1.1"
   viewBox="0 0 955 680.5"
   height="680.5"
   width="955"
   data-name="Layer 1"
   id="a1e1094a-0c8c-49ef-9e46-7b691cb0c375">
  <metadata
     id="metadata3482">
    <rdf:RDF>
      <cc:Work
         rdf:about="">
        <dc:format>image/svg+xml</dc:format>
        <dc:type
           rdf:resource="http://purl.org/dc/dcmitype/StillImage" />
      </cc:Work>
    </rdf:RDF>
  </metadata>
  <sodipodi:namedview
     inkscape:current-layer="a1e1094a-0c8c-49ef-9e46-7b691cb0c375"
     inkscape:window-maximized="1"
     inkscape:window-y="-8"
     inkscape:window-x="-8"
     inkscape:cy="340.25"
     inkscape:cx="477.5"
     inkscape:zoom="1.0984293"
     showgrid="false"
     id="namedview3480"
     inkscape:window-height="1017"
     inkscape:window-width="1920"
     inkscape:pageshadow="2"
     inkscape:pageopacity="0"
     guidetolerance="10"
     gridtolerance="10"
     objecttolerance="10"
     borderopacity="1"
     bordercolor="#666666"
     pagecolor="#ffffff" />
  <defs
     id="defs3203">
    <linearGradient
       gradientUnits="userSpaceOnUse"
       y2="444.9"
       x2="677"
       y1="444.9"
       x1="410.65"
       id="24f03e8c-5c7e-4fae-8483-b5d808403054">
      <stop
         id="stop3193"
         stop-opacity="0.25"
         stop-color="gray"
         offset="0" />
      <stop
         id="stop3195"
         stop-opacity="0.12"
         stop-color="gray"
         offset="0.54" />
      <stop
         id="stop3197"
         stop-opacity="0.1"
         stop-color="gray"
         offset="1" />
    </linearGradient>
    <linearGradient
       gradientTransform="translate(-120.67922,30.450191)"
       xlink:href="#24f03e8c-5c7e-4fae-8483-b5d808403054"
       y2="466.38"
       x2="520.07"
       y1="466.38"
       x1="518.88"
       id="00c9c3cb-352a-4ad1-9ec3-c89fe8d1d33c" />
    <linearGradient
       gradientTransform="translate(-120.67922,30.450191)"
       xlink:href="#24f03e8c-5c7e-4fae-8483-b5d808403054"
       y2="467.31"
       x2="521.01"
       y1="467.31"
       x1="519.81"
       id="120917fe-dde0-4ef5-b791-4b8cdc7eaea0" />
    <linearGradient
       gradientTransform="translate(-120.67922,30.450191)"
       xlink:href="#24f03e8c-5c7e-4fae-8483-b5d808403054"
       y2="466.38"
       x2="521.01"
       y1="466.38"
       x1="519.81"
       id="d6588c0b-28b1-4044-81f0-862b52dadcf0" />
  </defs>
  <title
     id="title3205">walk in the city</title>
  <path
     id="path3207"
     stroke-width="2"
     stroke-miterlimit="10"
     stroke="#535461"
     fill="none"
     transform="translate(-122.5 -109.75)"
     d="M-10.73,747.34" />
  <polygon
     transform="translate(1.8207817,140.20019)"
     id="polygon3211"
     opacity="0.7"
     fill="#14487C"
     points="910,185 872,185 872,249 827,249 827,150 794,150 794,76 767,76 767,0 711,0 711,76 684,76 684,150 652,150 652,61 634,61 634,16 623,16 623,61 559,61 559,345 510,345 510,315 480,315 480,345 431,345 431,249 343,249 343,185 305,185 305,249 303,249 303,372 263,372 263,300 215,300 215,372 175,372 175,150 144,150 144,76 30,76 30,150 0,150 0,541 175,541 303,541 431,541 559,541 652,541 827,541 955,541 955,249 910,249 " />
  <rect
     id="rect3213"
     opacity="0.4"
     fill="#ffffff"
     height="24"
     width="42"
     y="313.2002"
     x="20.820782" />
  <rect
     id="rect3215"
     opacity="0.4"
     fill="#ffffff"
     transform="scale(-1)"
     height="24"
     width="42"
     y="-337.2002"
     x="-156.82079" />
  <rect
     id="rect3217"
     opacity="0.4"
     fill="#ffffff"
     height="24"
     width="42"
     y="360.2002"
     x="20.820782" />
  <rect
     id="rect3219"
     opacity="0.4"
     fill="#ffffff"
     transform="scale(-1)"
     height="24"
     width="42"
     y="-384.2002"
     x="-156.82079" />
  <rect
     id="rect3221"
     opacity="0.4"
     fill="#ffffff"
     height="24"
     width="42"
     y="407.2002"
     x="20.820782" />
  <rect
     id="rect3223"
     opacity="0.4"
     fill="#ffffff"
     transform="scale(-1)"
     height="24"
     width="42"
     y="-431.2002"
     x="-156.82079" />
  <rect
     id="rect3225"
     opacity="0.4"
     fill="#ffffff"
     height="24"
     width="42"
     y="454.2002"
     x="20.820782" />
  <rect
     id="rect3227"
     opacity="0.4"
     fill="#ffffff"
     transform="scale(-1)"
     height="24"
     width="42"
     y="-478.2002"
     x="-156.82079" />
  <rect
     id="rect3229"
     opacity="0.4"
     fill="#ffffff"
     height="24"
     width="42"
     y="501.2002"
     x="20.820782" />
  <rect
     id="rect3231"
     opacity="0.4"
     fill="#ffffff"
     transform="scale(-1)"
     height="24"
     width="42"
     y="-525.2002"
     x="-156.82079" />
  <rect
     id="rect3233"
     opacity="0.4"
     fill="#ffffff"
     height="24"
     width="42"
     y="548.2002"
     x="20.820782" />
  <rect
     id="rect3235"
     opacity="0.4"
     fill="#ffffff"
     transform="scale(-1)"
     height="24"
     width="42"
     y="-572.2002"
     x="-156.82079" />
  <rect
     id="rect3237"
     opacity="0.4"
     fill="#ffffff"
     height="24"
     width="42"
     y="595.2002"
     x="20.820782" />
  <rect
     id="rect3239"
     opacity="0.4"
     fill="#ffffff"
     transform="scale(-1)"
     height="24"
     width="42"
     y="-619.2002"
     x="-156.82079" />
  <rect
     id="rect3241"
     opacity="0.4"
     fill="#ffffff"
     height="12"
     width="98"
     y="536.2002"
     x="191.82079" />
  <rect
     id="rect3243"
     opacity="0.4"
     fill="#ffffff"
     height="12"
     width="98"
     y="554.2002"
     x="191.82079" />
  <rect
     id="rect3245"
     opacity="0.4"
     fill="#ffffff"
     height="12"
     width="98"
     y="572.2002"
     x="191.82079" />
  <rect
     id="rect3247"
     opacity="0.4"
     fill="#ffffff"
     height="12"
     width="98"
     y="542.2002"
     x="447.82077" />
  <rect
     id="rect3249"
     opacity="0.4"
     fill="#ffffff"
     height="12"
     width="98"
     y="560.2002"
     x="447.82077" />
  <rect
     id="rect3251"
     opacity="0.4"
     fill="#ffffff"
     height="12"
     width="98"
     y="578.2002"
     x="447.82077" />
  <rect
     id="rect3253"
     opacity="0.4"
     fill="#ffffff"
     height="12"
     width="98"
     y="590.2002"
     x="191.82079" />
  <rect
     id="rect3255"
     opacity="0.4"
     fill="#ffffff"
     height="12"
     width="98"
     y="608.2002"
     x="191.82079" />
  <rect
     id="rect3257"
     opacity="0.4"
     fill="#ffffff"
     height="12"
     width="98"
     y="626.2002"
     x="191.82079" />
  <rect
     id="rect3259"
     opacity="0.4"
     fill="#ffffff"
     height="35"
     width="27"
     y="412.2002"
     x="325.82077" />
  <rect
     id="rect3261"
     opacity="0.4"
     fill="#ffffff"
     transform="scale(-1)"
     height="35"
     width="27"
     y="-447.2002"
     x="-411.82077" />
  <rect
     id="rect3263"
     opacity="0.4"
     fill="#ffffff"
     height="35"
     width="27"
     y="468.2002"
     x="325.82077" />
  <rect
     id="rect3265"
     opacity="0.4"
     fill="#ffffff"
     transform="scale(-1)"
     height="35"
     width="27"
     y="-503.2002"
     x="-411.82077" />
  <rect
     id="rect3267"
     opacity="0.4"
     fill="#ffffff"
     height="35"
     width="27"
     y="524.2002"
     x="325.82077" />
  <rect
     id="rect3269"
     opacity="0.4"
     fill="#ffffff"
     transform="scale(-1)"
     height="35"
     width="27"
     y="-559.2002"
     x="-411.82077" />
  <rect
     id="rect3271"
     opacity="0.4"
     fill="#ffffff"
     height="35"
     width="27"
     y="580.2002"
     x="325.82077" />
  <rect
     id="rect3273"
     opacity="0.4"
     fill="#ffffff"
     transform="scale(-1)"
     height="35"
     width="27"
     y="-615.2002"
     x="-411.82077" />
  <rect
     id="rect3275"
     opacity="0.4"
     fill="#ffffff"
     height="46"
     width="36"
     y="224.2002"
     x="560.8208" />
  <rect
     id="rect3277"
     opacity="0.4"
     fill="#ffffff"
     height="46"
     width="36"
     y="290.2002"
     x="560.8208" />
  <rect
     id="rect3279"
     opacity="0.4"
     fill="#ffffff"
     height="46"
     width="36"
     y="356.2002"
     x="560.8208" />
  <rect
     id="rect3281"
     opacity="0.4"
     fill="#ffffff"
     height="46"
     width="36"
     y="422.2002"
     x="560.8208" />
  <rect
     id="rect3283"
     opacity="0.4"
     fill="#ffffff"
     height="46"
     width="36"
     y="488.2002"
     x="560.8208" />
  <rect
     id="rect3285"
     opacity="0.4"
     fill="#ffffff"
     height="46"
     width="36"
     y="554.2002"
     x="560.8208" />
  <rect
     id="rect3287"
     opacity="0.4"
     fill="#ffffff"
     height="39"
     width="134"
     y="318.2002"
     x="674.3208" />
  <rect
     id="rect3289"
     opacity="0.4"
     fill="#ffffff"
     height="39"
     width="134"
     y="402.2002"
     x="674.8208" />
  <rect
     id="rect3291"
     opacity="0.4"
     fill="#ffffff"
     height="39"
     width="134"
     y="486.2002"
     x="675.3208" />
  <rect
     id="rect3293"
     opacity="0.4"
     fill="#ffffff"
     height="39"
     width="134"
     y="570.2002"
     x="675.8208" />
  <rect
     id="rect3295"
     opacity="0.4"
     fill="#ffffff"
     height="38"
     width="18"
     y="237.2002"
     x="31.820782" />
  <rect
     id="rect3297"
     opacity="0.4"
     fill="#ffffff"
     height="58"
     width="45"
     y="412.2002"
     x="911.8208" />
  <rect
     id="rect3299"
     opacity="0.4"
     fill="#ffffff"
     height="58"
     width="45"
     y="496.2002"
     x="911.8208" />
  <rect
     id="rect3301"
     opacity="0.4"
     fill="#ffffff"
     height="58"
     width="45"
     y="580.2002"
     x="911.8208" />
  <path
     id="path3369"
     opacity="0.1"
     fill="#252223"
     d="m 266.50078,187.88019 h -6.88 a 4.82,4.82 0 1 0 0,-9.63 h -55.73 a 4.82,4.82 0 0 0 0,9.63 h 6.88 a 4.82,4.82 0 1 0 0,9.63 h -9.63 a 4.82,4.82 0 1 0 0,9.63 h 55.73 a 4.82,4.82 0 1 0 0,-9.63 h 9.63 a 4.82,4.82 0 1 0 0,-9.63 z" />
  <path
     id="path3371"
     opacity="0.1"
     fill="#252223"
     d="m 512.50078,308.88019 h -6.88 a 4.82,4.82 0 1 0 0,-9.63 h -55.73 a 4.82,4.82 0 0 0 0,9.63 h 6.88 a 4.82,4.82 0 1 0 0,9.63 h -9.63 a 4.82,4.82 0 1 0 0,9.63 h 55.73 a 4.82,4.82 0 1 0 0,-9.63 h 9.63 a 4.82,4.82 0 1 0 0,-9.63 z" />
  <path
     id="path3373"
     opacity="0.1"
     fill="#252223"
     d="m 931.50078,150.88019 h -6.88 a 4.82,4.82 0 1 0 0,-9.63 h -55.73 a 4.82,4.82 0 0 0 0,9.63 h 6.88 a 4.82,4.82 0 1 0 0,9.63 h -9.63 a 4.82,4.82 0 1 0 0,9.63 h 55.73 a 4.82,4.82 0 0 0 0,-9.63 h 9.63 a 4.82,4.82 0 1 0 0,-9.63 z" />
  <path
     style="fill:url(#00c9c3cb-352a-4ad1-9ec3-c89fe8d1d33c)"
     id="path3377"
     fill="url(#00c9c3cb-352a-4ad1-9ec3-c89fe8d1d33c)"
     d="m 399.39078,496.39019 c -0.77,0.56 -1.19,0.87 -1.19,0.87 a 5.07,5.07 0 0 0 1.19,-0.87 z" />
  <path
     style="fill:url(#120917fe-dde0-4ef5-b791-4b8cdc7eaea0)"
     id="path3379"
     fill="url(#120917fe-dde0-4ef5-b791-4b8cdc7eaea0)"
     d="m 400.32078,497.33019 c -0.77,0.56 -1.19,0.87 -1.19,0.87 a 5.07,5.07 0 0 0 1.19,-0.87 z" />
  <path
     style="fill:url(#d6588c0b-28b1-4044-81f0-862b52dadcf0)"
     id="path3381"
     fill="url(#d6588c0b-28b1-4044-81f0-862b52dadcf0)"
     d="m 400.32078,496.39019 c -0.77,0.56 -1.19,0.87 -1.19,0.87 a 5.07,5.07 0 0 0 1.19,-0.87 z" />
</svg>
